<svg xmlns="http://www.w3.org/2000/svg" xmlns:xlink="http://www.w3.org/1999/xlink" width="500" zoomAndPan="magnify" viewBox="0 0 375 374.999991" height="500" preserveAspectRatio="xMidYMid meet" version="1.0"><defs><g/><clipPath id="id1"><path d="M 102 46.636719 L 257 46.636719 L 257 93 L 102 93 Z M 102 46.636719 " clip-rule="nonzero"/></clipPath><clipPath id="id2"><path d="M 99 78 L 294.273438 78 L 294.273438 189 L 99 189 Z M 99 78 " clip-rule="nonzero"/></clipPath><clipPath id="id3"><path d="M 99 78 L 294.273438 78 L 294.273438 175 L 99 175 Z M 99 78 " clip-rule="nonzero"/></clipPath><clipPath id="id4"><path d="M 97 171 L 281 171 L 281 245.386719 L 97 245.386719 Z M 97 171 " clip-rule="nonzero"/></clipPath></defs><path fill="#db5f61" d="M 140.152344 167.71875 C 144.542969 172.214844 148.585938 177.03125 152.238281 182.121094 C 157.605469 182.28125 162.925781 182.785156 168.15625 183.625 C 162.34375 174.875 155.570312 166.84375 147.976562 159.707031 C 152.925781 150.507812 146.371094 135.832031 124.890625 125.160156 C 104.566406 115.257812 84.457031 119.289062 82.550781 129.972656 C 80.511719 140.730469 92.660156 151.117188 105.980469 159.851562 C 120.40625 169.222656 130.59375 172.917969 140.152344 167.71875 Z M 140.152344 167.71875 " fill-opacity="1" fill-rule="nonzero"/><path fill="#e86567" d="M 140.152344 164.84375 C 144.542969 169.339844 148.585938 177.03125 152.238281 182.121094 C 157.605469 182.28125 162.925781 182.785156 168.15625 183.625 C 162.34375 174.875 155.570312 166.84375 147.976562 159.707031 C 152.925781 150.507812 146.371094 135.832031 124.890625 125.160156 C 104.566406 115.257812 84.457031 119.289062 82.550781 129.972656 C 80.511719 140.730469 92.660156 148.242188 105.980469 156.976562 C 120.40625 166.347656 130.59375 170.042969 140.152344 164.84375 Z M 140.152344 164.84375 " fill-opacity="1" fill-rule="nonzero"/><g clip-path="url(#id1)"><path fill="#d0d2d3" d="M 121.480469 92.953125 C 131.367188 80.824219 144.699219 71.617188 159.988281 66.851562 C 165.40625 60.242188 173.621094 56.023438 182.808594 56.023438 C 191.566406 56.023438 199.441406 59.863281 204.851562 65.949219 C 217.582031 69.351562 229.066406 75.796875 238.496094 84.449219 C 244.203125 82.183594 250.050781 80.273438 256.019531 78.738281 C 238.25 59.078125 212.570312 46.726562 184.003906 46.726562 C 150.078125 46.726562 120.230469 64.152344 102.867188 90.546875 C 109.289062 91.023438 115.476562 91.824219 121.480469 92.953125 Z M 121.480469 92.953125 " fill-opacity="1" fill-rule="nonzero"/></g><path fill="#d0d2d3" d="M 253.871094 103.597656 C 255.839844 107 257.5625 110.554688 259.023438 114.246094 C 264.171875 112.34375 269.433594 110.726562 274.796875 109.386719 C 272.84375 104.25 270.453125 99.328125 267.695312 94.652344 C 262.917969 97.304688 258.308594 100.296875 253.871094 103.597656 Z M 253.871094 103.597656 " fill-opacity="1" fill-rule="nonzero"/><path fill="#d0d2d3" d="M 97.433594 99.898438 C 94.785156 105.105469 92.570312 110.578125 90.882812 116.28125 C 94.128906 115.253906 97.859375 114.703125 101.945312 114.703125 C 104.136719 114.703125 106.371094 114.871094 108.625 115.175781 C 109.648438 112.492188 110.816406 109.878906 112.105469 107.339844 C 107.328125 104.582031 102.425781 102.09375 97.433594 99.898438 Z M 97.433594 99.898438 " fill-opacity="1" fill-rule="nonzero"/><path fill="#d0d2d3" d="M 115.5 186.550781 C 111.527344 180.15625 108.410156 173.167969 106.339844 165.742188 C 105.371094 165.144531 104.390625 164.53125 103.375 163.867188 C 97.773438 160.195312 91.890625 155.972656 87.152344 151.253906 C 88.25 166.074219 92.679688 179.957031 99.671875 192.183594 C 104.765625 189.941406 110.0625 188.0625 115.5 186.550781 Z M 115.5 186.550781 " fill-opacity="1" fill-rule="nonzero"/><path fill="#d0d2d3" d="M 227.910156 212.253906 C 246.699219 205.722656 263.296875 193.570312 275.339844 177.023438 C 278.195312 169.121094 280.070312 160.75 280.789062 152.046875 C 274.347656 154.902344 268.234375 158.359375 262.519531 162.417969 C 257.683594 183.121094 244.894531 200.757812 227.550781 211.921875 Z M 227.910156 212.253906 " fill-opacity="1" fill-rule="nonzero"/><path fill="#db5f61" d="M 196.902344 191.976562 C 200.949219 193.730469 204.867188 195.707031 208.628906 197.894531 C 214.003906 186.613281 221.078125 176.207031 229.597656 167.039062 C 236.34375 169.558594 245.410156 169.519531 251.554688 164.917969 C 261.320312 156.492188 272.78125 149.613281 285.628906 144.890625 C 286.992188 144.484375 287.84375 143.183594 287.511719 141.953125 C 287.179688 140.722656 285.742188 140.039062 284.3125 140.46875 C 275.046875 143.230469 266.304688 147.078125 258.21875 151.851562 C 256.980469 152.585938 255.445312 152.324219 254.769531 151.246094 C 254.09375 150.164062 254.582031 148.640625 255.875 147.875 C 264.28125 142.914062 273.363281 138.917969 282.996094 136.042969 C 284.46875 135.601562 285.410156 134.28125 285.082031 133.050781 C 284.75 131.816406 283.21875 131.160156 281.679688 131.621094 C 271.6875 134.601562 262.257812 138.75 253.535156 143.898438 C 252.199219 144.6875 250.585938 144.476562 249.910156 143.398438 C 249.234375 142.316406 249.800781 140.746094 251.191406 139.921875 C 260.230469 134.585938 270.003906 130.285156 280.359375 127.199219 C 281.945312 126.722656 282.976562 125.375 282.648438 124.140625 C 282.320312 122.910156 280.695312 122.277344 279.042969 122.769531 C 268.320312 125.96875 258.207031 130.421875 248.847656 135.941406 C 247.414062 136.789062 245.726562 136.628906 245.050781 135.546875 C 244.371094 134.464844 245.011719 132.847656 246.507812 131.964844 C 256.183594 126.253906 266.640625 121.648438 277.726562 118.34375 C 279.421875 117.835938 280.550781 116.460938 280.21875 115.230469 C 279.886719 114 278.171875 113.390625 276.40625 113.921875 C 259.328125 118.128906 243.351562 125.324219 229.074219 135.023438 C 220.570312 141.417969 218.664062 152.371094 221.394531 159.039062 C 211.660156 168.648438 203.382812 179.75 196.902344 191.976562 Z M 196.902344 191.976562 " fill-opacity="1" fill-rule="nonzero"/><path fill="#e86567" d="M 196.902344 191.976562 C 200.949219 193.730469 204.867188 195.707031 208.628906 197.894531 C 214.003906 186.613281 221.078125 173.328125 229.597656 164.164062 C 236.34375 166.683594 245.410156 166.644531 251.554688 162.042969 C 261.320312 153.617188 272.78125 149.613281 285.628906 144.890625 C 286.992188 144.484375 287.84375 143.183594 287.511719 141.953125 C 287.179688 140.722656 285.742188 140.039062 284.3125 140.46875 C 275.046875 143.230469 266.304688 147.078125 258.21875 151.851562 C 256.980469 152.585938 255.445312 152.324219 254.769531 151.246094 C 254.09375 150.164062 254.582031 148.640625 255.875 147.875 C 264.28125 142.914062 273.363281 138.917969 282.996094 136.042969 C 284.46875 135.601562 285.410156 134.28125 285.082031 133.050781 C 284.75 131.816406 283.21875 131.160156 281.679688 131.621094 C 271.6875 134.601562 262.257812 138.75 253.535156 143.898438 C 252.199219 144.6875 250.585938 144.476562 249.910156 143.398438 C 249.234375 142.316406 249.800781 140.746094 251.191406 139.921875 C 260.230469 134.585938 270.003906 130.285156 280.359375 127.199219 C 281.945312 126.722656 282.976562 125.375 282.648438 124.140625 C 282.320312 122.910156 280.695312 122.277344 279.042969 122.769531 C 268.320312 125.96875 258.207031 130.421875 248.847656 135.941406 C 247.414062 136.789062 245.726562 136.628906 245.050781 135.546875 C 244.371094 134.464844 245.011719 132.847656 246.507812 131.964844 C 256.183594 126.253906 266.640625 121.648438 277.726562 118.34375 C 279.421875 117.835938 280.550781 116.460938 280.21875 115.230469 C 279.886719 114 278.171875 113.390625 276.40625 113.921875 C 259.328125 118.128906 243.351562 125.324219 229.074219 135.023438 C 220.570312 141.417969 218.664062 152.371094 221.394531 159.039062 C 211.660156 168.648438 203.382812 179.75 196.902344 191.976562 Z M 196.902344 191.976562 " fill-opacity="1" fill-rule="nonzero"/><g clip-path="url(#id2)"><path fill="#53aa56" d="M 167.0625 154.160156 C 173.09375 164.148438 177.96875 174.914062 181.519531 186.265625 C 183.699219 186.886719 185.855469 187.5625 187.984375 188.304688 C 191.75 174.808594 197.011719 162.113281 203.535156 150.441406 C 223.953125 113.941406 256.675781 87.496094 294.253906 78.265625 C 293.976562 78.261719 293.703125 78.253906 293.425781 78.253906 C 250.082031 78.253906 212.941406 95.765625 184.035156 127.078125 C 157.257812 106.308594 131.183594 96.566406 99.019531 94.628906 C 127.421875 106.917969 151.199219 127.875 167.0625 154.160156 Z M 167.0625 154.160156 " fill-opacity="1" fill-rule="nonzero"/></g><g clip-path="url(#id3)"><path fill="#58b25a" d="M 185.09375 174.660156 C 208.3125 114.035156 256.679688 87.496094 294.253906 78.261719 C 293.976562 78.261719 293.703125 78.253906 293.425781 78.253906 C 250.082031 78.253906 212.941406 95.761719 184.035156 127.078125 C 157.257812 106.308594 131.183594 96.5625 99.019531 94.625 C 127.421875 106.917969 170.015625 133.207031 185.09375 174.660156 Z M 185.09375 174.660156 " fill-opacity="1" fill-rule="nonzero"/></g><path fill="#58b25a" d="M 202.558594 76.351562 C 202.84375 77.023438 203.09375 77.710938 203.3125 78.410156 C 203.527344 79.109375 203.710938 79.820312 203.859375 80.535156 C 204.007812 81.253906 204.121094 81.976562 204.199219 82.707031 C 204.273438 83.433594 204.316406 84.164062 204.320312 84.894531 C 204.328125 85.628906 204.296875 86.359375 204.230469 87.089844 C 204.164062 87.820312 204.0625 88.542969 203.925781 89.261719 C 203.789062 89.980469 203.613281 90.691406 203.40625 91.394531 C 203.199219 92.097656 202.960938 92.789062 202.683594 93.46875 C 202.410156 94.144531 202.101562 94.808594 201.761719 95.457031 C 201.421875 96.105469 201.050781 96.738281 200.648438 97.347656 C 200.246094 97.960938 199.816406 98.550781 199.355469 99.121094 C 198.898438 99.691406 198.410156 100.238281 197.898438 100.757812 C 197.382812 101.28125 196.84375 101.777344 196.285156 102.246094 C 195.722656 102.714844 195.136719 103.152344 194.53125 103.566406 C 193.925781 103.976562 193.304688 104.359375 192.660156 104.707031 C 192.019531 105.058594 191.359375 105.375 190.6875 105.660156 C 190.011719 105.945312 189.324219 106.199219 188.628906 106.414062 C 187.929688 106.632812 187.222656 106.816406 186.503906 106.964844 C 185.789062 107.113281 185.066406 107.226562 184.339844 107.304688 C 183.609375 107.378906 182.882812 107.421875 182.148438 107.425781 C 181.417969 107.433594 180.6875 107.402344 179.960938 107.335938 C 179.230469 107.269531 178.507812 107.167969 177.789062 107.03125 C 177.070312 106.890625 176.359375 106.71875 175.660156 106.511719 C 174.957031 106.304688 174.265625 106.0625 173.589844 105.789062 C 172.910156 105.511719 172.246094 105.207031 171.601562 104.863281 C 170.953125 104.523438 170.324219 104.152344 169.710938 103.75 C 169.101562 103.347656 168.511719 102.917969 167.941406 102.457031 C 167.371094 101.996094 166.828125 101.507812 166.304688 100.996094 C 165.785156 100.480469 165.289062 99.941406 164.820312 99.378906 C 164.351562 98.816406 163.914062 98.234375 163.503906 97.625 C 163.089844 97.019531 162.710938 96.394531 162.363281 95.753906 C 162.011719 95.109375 161.695312 94.449219 161.410156 93.777344 C 161.125 93.101562 160.875 92.414062 160.65625 91.714844 C 160.4375 91.015625 160.253906 90.308594 160.105469 89.589844 C 159.960938 88.871094 159.847656 88.148438 159.769531 87.421875 C 159.691406 86.691406 159.652344 85.960938 159.644531 85.230469 C 159.640625 84.496094 159.671875 83.765625 159.738281 83.035156 C 159.804688 82.308594 159.90625 81.582031 160.042969 80.863281 C 160.179688 80.144531 160.351562 79.433594 160.558594 78.730469 C 160.765625 78.027344 161.007812 77.335938 161.28125 76.660156 C 161.558594 75.980469 161.863281 75.316406 162.203125 74.667969 C 162.542969 74.019531 162.914062 73.390625 163.316406 72.777344 C 163.71875 72.164062 164.152344 71.574219 164.609375 71.003906 C 165.070312 70.433594 165.558594 69.890625 166.070312 69.367188 C 166.582031 68.84375 167.121094 68.351562 167.683594 67.882812 C 168.246094 67.414062 168.828125 66.972656 169.433594 66.5625 C 170.039062 66.148438 170.664062 65.769531 171.304688 65.417969 C 171.949219 65.066406 172.609375 64.75 173.28125 64.464844 C 173.957031 64.179688 174.640625 63.929688 175.339844 63.710938 C 176.039062 63.492188 176.746094 63.308594 177.460938 63.160156 C 178.179688 63.011719 178.902344 62.898438 179.628906 62.824219 C 180.355469 62.746094 181.085938 62.703125 181.816406 62.699219 C 182.546875 62.695312 183.277344 62.722656 184.007812 62.789062 C 184.734375 62.855469 185.460938 62.957031 186.179688 63.097656 C 186.898438 63.234375 187.605469 63.40625 188.308594 63.613281 C 189.011719 63.820312 189.699219 64.0625 190.378906 64.335938 C 191.054688 64.613281 191.71875 64.921875 192.367188 65.261719 C 193.015625 65.601562 193.644531 65.972656 194.253906 66.375 C 194.867188 66.777344 195.457031 67.210938 196.027344 67.667969 C 196.59375 68.128906 197.140625 68.617188 197.660156 69.132812 C 198.183594 69.644531 198.675781 70.183594 199.144531 70.746094 C 199.613281 71.308594 200.054688 71.894531 200.464844 72.5 C 200.875 73.105469 201.253906 73.730469 201.605469 74.375 C 201.953125 75.015625 202.273438 75.675781 202.558594 76.351562 Z M 202.558594 76.351562 " fill-opacity="1" fill-rule="nonzero"/><path fill="#53aa56" d="M 181.988281 101.972656 C 170.136719 101.972656 160.445312 93.859375 159.699219 83.609375 C 159.667969 84.085938 159.648438 84.570312 159.648438 85.0625 C 159.648438 97.414062 169.648438 107.425781 181.988281 107.425781 C 194.324219 107.425781 204.324219 97.414062 204.324219 85.0625 C 204.324219 84.574219 204.304688 84.089844 204.273438 83.609375 C 203.527344 93.859375 193.835938 101.972656 181.988281 101.972656 Z M 181.988281 101.972656 " fill-opacity="1" fill-rule="nonzero"/><g clip-path="url(#id4)"><path fill="#53aa56" d="M 188.8125 227.714844 C 168.300781 227.714844 149.183594 221.757812 133.085938 211.476562 C 139.820312 213.929688 146.921875 215.949219 154.332031 217.449219 C 179.15625 222.476562 203.109375 220.871094 222.632812 214.148438 C 204.046875 197.058594 177.382812 186.34375 147.761719 186.34375 C 129.324219 186.34375 112.03125 190.492188 97.117188 197.746094 C 115.132812 226.3125 146.945312 245.289062 183.183594 245.289062 C 244.023438 245.289062 274.898438 196.550781 280.949219 171.65625 C 268.796875 195.710938 238.277344 227.714844 188.8125 227.714844 Z M 188.8125 227.714844 " fill-opacity="1" fill-rule="nonzero"/></g><path fill="#58b25a" d="M 188.8125 227.714844 C 168.300781 227.714844 149.183594 221.757812 133.085938 211.476562 C 139.820312 213.929688 146.921875 215.949219 154.332031 217.449219 C 179.15625 222.476562 203.109375 220.871094 222.632812 214.148438 C 204.046875 197.058594 177.382812 186.34375 147.761719 186.34375 C 129.324219 186.34375 112.03125 190.492188 97.117188 197.746094 C 115.132812 226.3125 146.945312 238.578125 183.183594 238.578125 C 244.023438 238.578125 274.898438 196.550781 280.949219 171.65625 C 268.796875 195.710938 238.277344 227.714844 188.8125 227.714844 Z M 188.8125 227.714844 " fill-opacity="1" fill-rule="nonzero"/><g fill="#db5f61" fill-opacity="1"><g transform="translate(91.713866, 295.995595)"><g><path d="M 28.421875 0 L 20.421875 0 L 20.421875 -12 L 11.171875 -12 L 11.171875 0 L 3.1875 0 L 3.1875 -29.453125 L 11.171875 -29.453125 L 11.171875 -18.53125 L 20.421875 -18.53125 L 20.421875 -29.453125 L 28.421875 -29.453125 Z M 28.421875 0 "/></g></g><g transform="translate(123.316036, 295.995595)"><g><path d="M 20.671875 0 L 3.1875 0 L 3.1875 -29.453125 L 20.671875 -29.453125 L 20.671875 -23.0625 L 11.140625 -23.0625 L 11.140625 -18.421875 L 19.953125 -18.421875 L 19.953125 -12.046875 L 11.140625 -12.046875 L 11.140625 -6.484375 L 20.671875 -6.484375 Z M 20.671875 0 "/></g></g><g transform="translate(145.955195, 295.995595)"><g><path d="M 21.25 0 L 19.796875 -5.515625 L 10.234375 -5.515625 L 8.734375 0 L 0 0 L 9.609375 -29.5625 L 20.21875 -29.5625 L 29.953125 0 Z M 18.140625 -12.046875 L 16.875 -16.875 C 16.582031 -17.945312 16.222656 -19.335938 15.796875 -21.046875 C 15.378906 -22.753906 15.101562 -23.976562 14.96875 -24.71875 C 14.84375 -24.03125 14.601562 -22.898438 14.25 -21.328125 C 13.894531 -19.753906 13.109375 -16.660156 11.890625 -12.046875 Z M 18.140625 -12.046875 "/></g></g><g transform="translate(175.905755, 295.995595)"><g><path d="M 3.1875 0 L 3.1875 -29.453125 L 11.140625 -29.453125 L 11.140625 -6.421875 L 22.484375 -6.421875 L 22.484375 0 Z M 3.1875 0 "/></g></g><g transform="translate(199.914542, 295.995595)"><g><path d="M 16.171875 0 L 8.21875 0 L 8.21875 -22.9375 L 1.03125 -22.9375 L 1.03125 -29.453125 L 23.34375 -29.453125 L 23.34375 -22.9375 L 16.171875 -22.9375 Z M 16.171875 0 "/></g></g><g transform="translate(224.285879, 295.995595)"><g><path d="M 28.421875 0 L 20.421875 0 L 20.421875 -12 L 11.171875 -12 L 11.171875 0 L 3.1875 0 L 3.1875 -29.453125 L 11.171875 -29.453125 L 11.171875 -18.53125 L 20.421875 -18.53125 L 20.421875 -29.453125 L 28.421875 -29.453125 Z M 28.421875 0 "/></g></g><g transform="translate(255.888049, 295.995595)"><g><path d="M 13.703125 -18.53125 L 18.765625 -29.453125 L 27.390625 -29.453125 L 17.703125 -11.5 L 17.703125 0 L 9.6875 0 L 9.6875 -11.265625 L 0 -29.453125 L 8.65625 -29.453125 Z M 13.703125 -18.53125 "/></g></g></g><g fill="#737373" fill-opacity="1"><g transform="translate(98.338121, 323.562106)"><g><path d="M 9.296875 0 L 9.015625 -1.90625 L 8.9375 -1.90625 C 8.332031 -1.125 7.707031 -0.570312 7.0625 -0.25 C 6.425781 0.0625 5.675781 0.21875 4.8125 0.21875 C 3.632812 0.21875 2.71875 -0.0820312 2.0625 -0.6875 C 1.40625 -1.289062 1.078125 -2.125 1.078125 -3.1875 C 1.078125 -4.363281 1.5625 -5.273438 2.53125 -5.921875 C 3.507812 -6.566406 4.925781 -6.90625 6.78125 -6.9375 L 9.0625 -7.015625 L 9.0625 -7.8125 C 9.0625 -8.945312 8.828125 -9.804688 8.359375 -10.390625 C 7.898438 -10.972656 7.15625 -11.265625 6.125 -11.265625 C 5.007812 -11.265625 3.859375 -10.953125 2.671875 -10.328125 L 2.265625 -11.28125 C 3.578125 -11.894531 4.878906 -12.203125 6.171875 -12.203125 C 7.484375 -12.203125 8.460938 -11.859375 9.109375 -11.171875 C 9.765625 -10.492188 10.09375 -9.429688 10.09375 -7.984375 L 10.09375 0 Z M 4.875 -0.765625 C 6.15625 -0.765625 7.164062 -1.128906 7.90625 -1.859375 C 8.644531 -2.597656 9.015625 -3.617188 9.015625 -4.921875 L 9.015625 -6.109375 L 6.921875 -6.015625 C 5.234375 -5.929688 4.03125 -5.664062 3.3125 -5.21875 C 2.59375 -4.78125 2.234375 -4.085938 2.234375 -3.140625 C 2.234375 -2.390625 2.460938 -1.804688 2.921875 -1.390625 C 3.390625 -0.972656 4.039062 -0.765625 4.875 -0.765625 Z M 4.875 -0.765625 "/></g></g><g transform="translate(110.312116, 323.562106)"><g><path d="M 10.375 0 L 10.375 -7.78125 C 10.375 -8.988281 10.117188 -9.863281 9.609375 -10.40625 C 9.109375 -10.957031 8.320312 -11.234375 7.25 -11.234375 C 5.8125 -11.234375 4.757812 -10.867188 4.09375 -10.140625 C 3.4375 -9.421875 3.109375 -8.25 3.109375 -6.625 L 3.109375 0 L 2.015625 0 L 2.015625 -12 L 2.9375 -12 L 3.140625 -10.359375 L 3.21875 -10.359375 C 3.988281 -11.609375 5.375 -12.234375 7.375 -12.234375 C 10.09375 -12.234375 11.453125 -10.769531 11.453125 -7.84375 L 11.453125 0 Z M 10.375 0 "/></g></g><g transform="translate(123.643532, 323.562106)"><g><path d="M 6.40625 -12.234375 C 7.269531 -12.234375 8.019531 -12.070312 8.65625 -11.75 C 9.289062 -11.4375 9.859375 -10.898438 10.359375 -10.140625 L 10.421875 -10.140625 C 10.378906 -11.066406 10.359375 -11.972656 10.359375 -12.859375 L 10.359375 -17.171875 L 11.4375 -17.171875 L 11.4375 0 L 10.71875 0 L 10.4375 -1.828125 L 10.359375 -1.828125 C 9.441406 -0.460938 8.128906 0.21875 6.421875 0.21875 C 4.765625 0.21875 3.5 -0.296875 2.625 -1.328125 C 1.75 -2.359375 1.3125 -3.859375 1.3125 -5.828125 C 1.3125 -7.898438 1.742188 -9.484375 2.609375 -10.578125 C 3.484375 -11.679688 4.75 -12.234375 6.40625 -12.234375 Z M 6.40625 -11.234375 C 5.09375 -11.234375 4.109375 -10.773438 3.453125 -9.859375 C 2.796875 -8.941406 2.46875 -7.601562 2.46875 -5.84375 C 2.46875 -2.445312 3.785156 -0.75 6.421875 -0.75 C 7.773438 -0.75 8.769531 -1.140625 9.40625 -1.921875 C 10.039062 -2.710938 10.359375 -4.015625 10.359375 -5.828125 L 10.359375 -6.015625 C 10.359375 -7.867188 10.046875 -9.203125 9.421875 -10.015625 C 8.796875 -10.828125 7.789062 -11.234375 6.40625 -11.234375 Z M 6.40625 -11.234375 "/></g></g><g transform="translate(137.096343, 323.562106)"><g/></g><g transform="translate(142.967464, 323.562106)"><g><path d="M 14.015625 0 L 12.890625 0 L 3.328125 -14.328125 L 3.234375 -14.328125 C 3.316406 -12.617188 3.359375 -11.332031 3.359375 -10.46875 L 3.359375 0 L 2.28125 0 L 2.28125 -16.140625 L 3.40625 -16.140625 L 12.953125 -1.828125 L 13.03125 -1.828125 C 12.957031 -3.148438 12.921875 -4.410156 12.921875 -5.609375 L 12.921875 -16.140625 L 14.015625 -16.140625 Z M 14.015625 0 "/></g></g><g transform="translate(159.267548, 323.562106)"><g><path d="M 9.296875 0 L 9.015625 -1.90625 L 8.9375 -1.90625 C 8.332031 -1.125 7.707031 -0.570312 7.0625 -0.25 C 6.425781 0.0625 5.675781 0.21875 4.8125 0.21875 C 3.632812 0.21875 2.71875 -0.0820312 2.0625 -0.6875 C 1.40625 -1.289062 1.078125 -2.125 1.078125 -3.1875 C 1.078125 -4.363281 1.5625 -5.273438 2.53125 -5.921875 C 3.507812 -6.566406 4.925781 -6.90625 6.78125 -6.9375 L 9.0625 -7.015625 L 9.0625 -7.8125 C 9.0625 -8.945312 8.828125 -9.804688 8.359375 -10.390625 C 7.898438 -10.972656 7.15625 -11.265625 6.125 -11.265625 C 5.007812 -11.265625 3.859375 -10.953125 2.671875 -10.328125 L 2.265625 -11.28125 C 3.578125 -11.894531 4.878906 -12.203125 6.171875 -12.203125 C 7.484375 -12.203125 8.460938 -11.859375 9.109375 -11.171875 C 9.765625 -10.492188 10.09375 -9.429688 10.09375 -7.984375 L 10.09375 0 Z M 4.875 -0.765625 C 6.15625 -0.765625 7.164062 -1.128906 7.90625 -1.859375 C 8.644531 -2.597656 9.015625 -3.617188 9.015625 -4.921875 L 9.015625 -6.109375 L 6.921875 -6.015625 C 5.234375 -5.929688 4.03125 -5.664062 3.3125 -5.21875 C 2.59375 -4.78125 2.234375 -4.085938 2.234375 -3.140625 C 2.234375 -2.390625 2.460938 -1.804688 2.921875 -1.390625 C 3.390625 -0.972656 4.039062 -0.765625 4.875 -0.765625 Z M 4.875 -0.765625 "/></g></g><g transform="translate(171.241543, 323.562106)"><g><path d="M 5.171875 -0.75 C 5.867188 -0.75 6.472656 -0.804688 6.984375 -0.921875 L 6.984375 -0.046875 C 6.453125 0.128906 5.84375 0.21875 5.15625 0.21875 C 4.09375 0.21875 3.304688 -0.0625 2.796875 -0.625 C 2.296875 -1.195312 2.046875 -2.085938 2.046875 -3.296875 L 2.046875 -11.046875 L 0.28125 -11.046875 L 0.28125 -11.6875 L 2.046875 -12.1875 L 2.609375 -14.90625 L 3.171875 -14.90625 L 3.171875 -12 L 6.6875 -12 L 6.6875 -11.046875 L 3.171875 -11.046875 L 3.171875 -3.453125 C 3.171875 -2.535156 3.332031 -1.851562 3.65625 -1.40625 C 3.976562 -0.96875 4.484375 -0.75 5.171875 -0.75 Z M 5.171875 -0.75 "/></g></g><g transform="translate(178.812198, 323.562106)"><g><path d="M 2.953125 -12 L 2.953125 -4.234375 C 2.953125 -3.023438 3.207031 -2.144531 3.71875 -1.59375 C 4.226562 -1.039062 5.015625 -0.765625 6.078125 -0.765625 C 7.503906 -0.765625 8.554688 -1.125 9.234375 -1.84375 C 9.910156 -2.570312 10.25 -3.75 10.25 -5.375 L 10.25 -12 L 11.328125 -12 L 11.328125 0 L 10.40625 0 L 10.203125 -1.65625 L 10.140625 -1.65625 C 9.359375 -0.40625 7.96875 0.21875 5.96875 0.21875 C 3.238281 0.21875 1.875 -1.238281 1.875 -4.15625 L 1.875 -12 Z M 2.953125 -12 "/></g></g><g transform="translate(192.143614, 323.562106)"><g><path d="M 6.734375 -12.234375 C 7.242188 -12.234375 7.789062 -12.179688 8.375 -12.078125 L 8.15625 -11.03125 C 7.65625 -11.15625 7.140625 -11.21875 6.609375 -11.21875 C 5.578125 -11.21875 4.734375 -10.78125 4.078125 -9.90625 C 3.429688 -9.039062 3.109375 -7.945312 3.109375 -6.625 L 3.109375 0 L 2.015625 0 L 2.015625 -12 L 2.9375 -12 L 3.046875 -9.84375 L 3.125 -9.84375 C 3.613281 -10.71875 4.140625 -11.332031 4.703125 -11.6875 C 5.265625 -12.050781 5.941406 -12.234375 6.734375 -12.234375 Z M 6.734375 -12.234375 "/></g></g><g transform="translate(200.939258, 323.562106)"><g><path d="M 9.296875 0 L 9.015625 -1.90625 L 8.9375 -1.90625 C 8.332031 -1.125 7.707031 -0.570312 7.0625 -0.25 C 6.425781 0.0625 5.675781 0.21875 4.8125 0.21875 C 3.632812 0.21875 2.71875 -0.0820312 2.0625 -0.6875 C 1.40625 -1.289062 1.078125 -2.125 1.078125 -3.1875 C 1.078125 -4.363281 1.5625 -5.273438 2.53125 -5.921875 C 3.507812 -6.566406 4.925781 -6.90625 6.78125 -6.9375 L 9.0625 -7.015625 L 9.0625 -7.8125 C 9.0625 -8.945312 8.828125 -9.804688 8.359375 -10.390625 C 7.898438 -10.972656 7.15625 -11.265625 6.125 -11.265625 C 5.007812 -11.265625 3.859375 -10.953125 2.671875 -10.328125 L 2.265625 -11.28125 C 3.578125 -11.894531 4.878906 -12.203125 6.171875 -12.203125 C 7.484375 -12.203125 8.460938 -11.859375 9.109375 -11.171875 C 9.765625 -10.492188 10.09375 -9.429688 10.09375 -7.984375 L 10.09375 0 Z M 4.875 -0.765625 C 6.15625 -0.765625 7.164062 -1.128906 7.90625 -1.859375 C 8.644531 -2.597656 9.015625 -3.617188 9.015625 -4.921875 L 9.015625 -6.109375 L 6.921875 -6.015625 C 5.234375 -5.929688 4.03125 -5.664062 3.3125 -5.21875 C 2.59375 -4.78125 2.234375 -4.085938 2.234375 -3.140625 C 2.234375 -2.390625 2.460938 -1.804688 2.921875 -1.390625 C 3.390625 -0.972656 4.039062 -0.765625 4.875 -0.765625 Z M 4.875 -0.765625 "/></g></g><g transform="translate(212.913253, 323.562106)"><g><path d="M 3.109375 0 L 2.015625 0 L 2.015625 -17.171875 L 3.109375 -17.171875 Z M 3.109375 0 "/></g></g><g transform="translate(218.022894, 323.562106)"><g/></g><g transform="translate(223.894014, 323.562106)"><g><path d="M 9.390625 0 L 3.359375 -14.90625 L 3.28125 -14.90625 C 3.332031 -13.988281 3.359375 -13.050781 3.359375 -12.09375 L 3.359375 0 L 2.28125 0 L 2.28125 -16.140625 L 4.03125 -16.140625 L 9.75 -1.9375 L 9.8125 -1.9375 L 15.53125 -16.140625 L 17.234375 -16.140625 L 17.234375 0 L 16.09375 0 L 16.09375 -12.234375 C 16.09375 -13.085938 16.140625 -13.96875 16.234375 -14.875 L 16.140625 -14.875 L 10.09375 0 Z M 9.390625 0 "/></g></g><g transform="translate(243.394521, 323.562106)"><g><path d="M 6.859375 0.21875 C 5.109375 0.21875 3.742188 -0.316406 2.765625 -1.390625 C 1.796875 -2.460938 1.3125 -3.96875 1.3125 -5.90625 C 1.3125 -7.820312 1.78125 -9.351562 2.71875 -10.5 C 3.664062 -11.65625 4.9375 -12.234375 6.53125 -12.234375 C 7.945312 -12.234375 9.0625 -11.738281 9.875 -10.75 C 10.695312 -9.757812 11.109375 -8.421875 11.109375 -6.734375 L 11.109375 -5.84375 L 2.46875 -5.84375 C 2.476562 -4.195312 2.859375 -2.9375 3.609375 -2.0625 C 4.367188 -1.195312 5.453125 -0.765625 6.859375 -0.765625 C 7.535156 -0.765625 8.132812 -0.8125 8.65625 -0.90625 C 9.175781 -1.007812 9.832031 -1.21875 10.625 -1.53125 L 10.625 -0.546875 C 9.945312 -0.242188 9.320312 -0.0390625 8.75 0.0625 C 8.175781 0.164062 7.546875 0.21875 6.859375 0.21875 Z M 6.53125 -11.265625 C 5.375 -11.265625 4.445312 -10.878906 3.75 -10.109375 C 3.050781 -9.347656 2.644531 -8.253906 2.53125 -6.828125 L 9.953125 -6.828125 C 9.953125 -8.210938 9.648438 -9.296875 9.046875 -10.078125 C 8.441406 -10.867188 7.601562 -11.265625 6.53125 -11.265625 Z M 6.53125 -11.265625 "/></g></g><g transform="translate(255.798918, 323.562106)"><g><path d="M 9.296875 0 L 9.015625 -1.90625 L 8.9375 -1.90625 C 8.332031 -1.125 7.707031 -0.570312 7.0625 -0.25 C 6.425781 0.0625 5.675781 0.21875 4.8125 0.21875 C 3.632812 0.21875 2.71875 -0.0820312 2.0625 -0.6875 C 1.40625 -1.289062 1.078125 -2.125 1.078125 -3.1875 C 1.078125 -4.363281 1.5625 -5.273438 2.53125 -5.921875 C 3.507812 -6.566406 4.925781 -6.90625 6.78125 -6.9375 L 9.0625 -7.015625 L 9.0625 -7.8125 C 9.0625 -8.945312 8.828125 -9.804688 8.359375 -10.390625 C 7.898438 -10.972656 7.15625 -11.265625 6.125 -11.265625 C 5.007812 -11.265625 3.859375 -10.953125 2.671875 -10.328125 L 2.265625 -11.28125 C 3.578125 -11.894531 4.878906 -12.203125 6.171875 -12.203125 C 7.484375 -12.203125 8.460938 -11.859375 9.109375 -11.171875 C 9.765625 -10.492188 10.09375 -9.429688 10.09375 -7.984375 L 10.09375 0 Z M 4.875 -0.765625 C 6.15625 -0.765625 7.164062 -1.128906 7.90625 -1.859375 C 8.644531 -2.597656 9.015625 -3.617188 9.015625 -4.921875 L 9.015625 -6.109375 L 6.921875 -6.015625 C 5.234375 -5.929688 4.03125 -5.664062 3.3125 -5.21875 C 2.59375 -4.78125 2.234375 -4.085938 2.234375 -3.140625 C 2.234375 -2.390625 2.460938 -1.804688 2.921875 -1.390625 C 3.390625 -0.972656 4.039062 -0.765625 4.875 -0.765625 Z M 4.875 -0.765625 "/></g></g><g transform="translate(267.772913, 323.562106)"><g><path d="M 3.109375 0 L 2.015625 0 L 2.015625 -17.171875 L 3.109375 -17.171875 Z M 3.109375 0 "/></g></g></g></svg>